<svg width="125" height="44" viewBox="0 0 125 44" fill="none" xmlns="http://www.w3.org/2000/svg">
<path d="M0 6C0 2.68629 2.68629 0 6 0H119C122.314 0 125 2.68629 125 6V38C125 41.3137 122.314 44 119 44H6C2.68629 44 0 41.3137 0 38V6Z" fill="#575445"/>
<g clip-path="url(#clip0_1_19)">
<path d="M20.6059 15H18V13H22.3941L22.8429 17H34V22.9384L21.7694 25.3694L20.6059 15ZM33.5 30C32.6716 30 32 29.3284 32 28.5C32 27.6716 32.6716 27 33.5 27C34.3284 27 35 27.6716 35 28.5C35 29.3284 34.3284 30 33.5 30ZM23.5 30C22.6716 30 22 29.3284 22 28.5C22 27.6716 22.6716 27 23.5 27C24.3284 27 25 27.6716 25 28.5C25 29.3284 24.3284 30 23.5 30Z" fill="white"/>
</g>
<path d="M43.688 21.416C43.688 20.328 43.9333 19.352 44.424 18.488C44.9147 17.6133 45.5813 16.9307 46.424 16.44C47.2773 15.9493 48.2213 15.704 49.256 15.704C50.472 15.704 51.5333 15.9973 52.44 16.584C53.3467 17.1707 54.008 18.0027 54.424 19.08H52.68C52.3707 18.408 51.9227 17.8907 51.336 17.528C50.76 17.1653 50.0667 16.984 49.256 16.984C48.4773 16.984 47.7787 17.1653 47.16 17.528C46.5413 17.8907 46.056 18.408 45.704 19.08C45.352 19.7413 45.176 20.52 45.176 21.416C45.176 22.3013 45.352 23.08 45.704 23.752C46.056 24.4133 46.5413 24.9253 47.16 25.288C47.7787 25.6507 48.4773 25.832 49.256 25.832C50.0667 25.832 50.76 25.656 51.336 25.304C51.9227 24.9413 52.3707 24.424 52.68 23.752H54.424C54.008 24.8187 53.3467 25.6453 52.44 26.232C51.5333 26.808 50.472 27.096 49.256 27.096C48.2213 27.096 47.2773 26.856 46.424 26.376C45.5813 25.8853 44.9147 25.208 44.424 24.344C43.9333 23.48 43.688 22.504 43.688 21.416ZM56.0474 22.584C56.0474 21.688 56.2287 20.904 56.5914 20.232C56.954 19.5493 57.45 19.0213 58.0794 18.648C58.7194 18.2747 59.4287 18.088 60.2074 18.088C60.9754 18.088 61.642 18.2533 62.2074 18.584C62.7727 18.9147 63.194 19.3307 63.4714 19.832V18.232H64.9434V27H63.4714V25.368C63.1834 25.88 62.7514 26.3067 62.1754 26.648C61.61 26.9787 60.9487 27.144 60.1914 27.144C59.4127 27.144 58.7087 26.952 58.0794 26.568C57.45 26.184 56.954 25.6453 56.5914 24.952C56.2287 24.2587 56.0474 23.4693 56.0474 22.584ZM63.4714 22.6C63.4714 21.9387 63.338 21.3627 63.0714 20.872C62.8047 20.3813 62.442 20.008 61.9834 19.752C61.5354 19.4853 61.0394 19.352 60.4954 19.352C59.9514 19.352 59.4554 19.48 59.0074 19.736C58.5594 19.992 58.202 20.3653 57.9354 20.856C57.6687 21.3467 57.5354 21.9227 57.5354 22.584C57.5354 23.256 57.6687 23.8427 57.9354 24.344C58.202 24.8347 58.5594 25.2133 59.0074 25.48C59.4554 25.736 59.9514 25.864 60.4954 25.864C61.0394 25.864 61.5354 25.736 61.9834 25.48C62.442 25.2133 62.8047 24.8347 63.0714 24.344C63.338 23.8427 63.4714 23.2613 63.4714 22.6ZM68.8599 19.656C69.1159 19.1547 69.4785 18.7653 69.9479 18.488C70.4279 18.2107 71.0092 18.072 71.6919 18.072V19.576H71.3079C69.6759 19.576 68.8599 20.4613 68.8599 22.232V27H67.4039V18.232H68.8599V19.656ZM75.1486 19.432V24.6C75.1486 25.0267 75.2393 25.3307 75.4206 25.512C75.602 25.6827 75.9166 25.768 76.3646 25.768H77.4366V27H76.1246C75.314 27 74.706 26.8133 74.3006 26.44C73.8953 26.0667 73.6926 25.4533 73.6926 24.6V19.432H72.5566V18.232H73.6926V16.024H75.1486V18.232H77.4366V19.432H75.1486Z" fill="white"/>
<path d="M87 22C87 17.0294 91.0294 13 96 13H98C102.971 13 107 17.0294 107 22C107 26.9706 102.971 31 98 31H96C91.0294 31 87 26.9706 87 22Z" fill="white"/>
<path d="M94.2284 21.941C94.2284 20.6797 94.4337 19.697 94.8444 18.993C95.2551 18.2817 95.9737 17.926 97.0004 17.926C98.0197 17.926 98.7347 18.2817 99.1454 18.993C99.5561 19.697 99.7614 20.6797 99.7614 21.941C99.7614 23.2243 99.5561 24.2217 99.1454 24.933C98.7347 25.6443 98.0197 26 97.0004 26C95.9737 26 95.2551 25.6443 94.8444 24.933C94.4337 24.2217 94.2284 23.2243 94.2284 21.941ZM98.7714 21.941C98.7714 21.303 98.7274 20.764 98.6394 20.324C98.5587 19.8767 98.3864 19.5173 98.1224 19.246C97.8657 18.9747 97.4917 18.839 97.0004 18.839C96.5017 18.839 96.1204 18.9747 95.8564 19.246C95.5997 19.5173 95.4274 19.8767 95.3394 20.324C95.2587 20.764 95.2184 21.303 95.2184 21.941C95.2184 22.601 95.2587 23.1547 95.3394 23.602C95.4274 24.0493 95.5997 24.4087 95.8564 24.68C96.1204 24.9513 96.5017 25.087 97.0004 25.087C97.4917 25.087 97.8657 24.9513 98.1224 24.68C98.3864 24.4087 98.5587 24.0493 98.6394 23.602C98.7274 23.1547 98.7714 22.601 98.7714 21.941Z" fill="#575445"/>
<defs>
<clipPath id="clip0_1_19">
<rect width="17" height="17" fill="white" transform="translate(18 13)"/>
</clipPath>
</defs>
</svg>
